<svg width="100%" height="100%" id="svg" viewBox="0 0 1440 490" xmlns="http://www.w3.org/2000/svg" class="transition duration-300 ease-in-out delay-150"><path d="M 0,500 L 0,125 C 83.9617224880383,125.73684210526315 167.9234449760766,126.4736842105263 258,133 C 348.0765550239234,139.5263157894737 444.26794258373195,151.84210526315792 543,138 C 641.732057416268,124.1578947368421 743.0047846889954,84.15789473684211 836,89 C 928.9952153110046,93.84210526315789 1013.712918660287,143.52631578947367 1113,157 C 1212.287081339713,170.47368421052633 1326.1435406698565,147.73684210526318 1440,125 L 1440,500 L 0,500 Z" stroke="none" stroke-width="0" fill="#1e3a2f" fill-opacity="0.53" class="transition-all duration-300 ease-in-out delay-150 path-0"/><path d="M 0,500 L 0,291 C 122.11483253588517,251.2775119617225 244.22966507177034,211.55502392344496 327,232 C 409.77033492822966,252.44497607655504 453.1961722488038,333.0574162679426 543,332 C 632.8038277511962,330.9425837320574 768.9856459330143,248.2153110047847 887,236 C 1005.0143540669857,223.7846889952153 1104.8612440191387,282.0813397129187 1194,303 C 1283.1387559808613,323.9186602870813 1361.5693779904307,307.4593301435407 1440,291 L 1440,500 L 0,500 Z" stroke="none" stroke-width="0" fill="#1e3a2f" fill-opacity="1" class="transition-all duration-300 ease-in-out delay-150 path-1"/></svg>